<?xml version="1.0" encoding="utf-8"?>
<!-- Generator: Adobe Illustrator 22.1.0, SVG Export Plug-In . SVG Version: 6.00 Build 0)  -->
<svg version="1.1" id="Capa_1" xmlns="http://www.w3.org/2000/svg" xmlns:xlink="http://www.w3.org/1999/xlink" x="0px" y="0px"
	 viewBox="0 0 713.9 518.8" style="enable-background:new 0 0 713.9 518.8;" xml:space="preserve">
<style type="text/css">
	.st0{fill:#FFFFFF;}
</style>
<g>
	<path class="st0" d="M223.5,444.9c1.3,0,2.6-0.4,3.7-1c3.1-0.8,5.4-3.7,5.4-7v-34.8c0-5.2-4.2-9.4-9.4-9.4H166
		c-1.6,0-3.2,0.4-4.5,1.2c-3.8,1.2-6.7,4.8-6.7,9v34.8c0,4,3.3,7.3,7.3,7.3H223.5z M171.2,429.5V408h45v21.5H171.2z"/>
	<path class="st0" d="M281.6,175.2c-1.5,0-3,0.4-4.3,1.1c-3.6,1.1-6.3,4.4-6.3,8.4v48.9c0,4.8,3.9,8.8,8.8,8.8h35.3
		c1.5,0,3-0.4,4.3-1.1c3.6-1.1,6.3-4.4,6.3-8.4V184c0-4.8-3.9-8.8-8.8-8.8H281.6z M287.4,227.1v-36.5h21.8v36.5H287.4z"/>
	<path class="st0" d="M394.3,184c0-4.8-3.9-8.8-8.8-8.8h-35.3c-1.5,0-3,0.4-4.3,1.1c-3.6,1.1-6.3,4.4-6.3,8.4v48.9
		c0,4.8,3.9,8.8,8.8,8.8h35.3c1.5,0,3-0.4,4.3-1.1c3.6-1.1,6.3-4.4,6.3-8.4V184z M356.1,227.1v-36.5H378v36.5H356.1z"/>
	<path class="st0" d="M385.5,276.4h-35.3c-1.5,0-3,0.4-4.3,1.1c-3.6,1.1-6.3,4.4-6.3,8.4v48.9c0,4.8,3.9,8.8,8.8,8.8h35.3
		c1.5,0,3-0.4,4.3-1.1c3.6-1.1,6.3-4.4,6.3-8.4v-48.9C394.3,280.4,390.4,276.4,385.5,276.4z M356.1,328.3v-36.5H378v36.5H356.1z"/>
	<g>
		<g>
			<path class="st0" d="M703.3,456.9L578,331.6c57.9-86.3,35-203.2-51.3-261.1s-203.2-35-261.1,51.3s-35,203.2,51.3,261.1
				c63.4,42.6,146.4,42.6,209.8,0L652,508.2c14.2,14.2,37.1,14.2,51.3,0C717.5,494,717.5,471.1,703.3,456.9z M422,398.8
				c-94.9-0.1-171.9-77.1-172-172c0-95,77-172,172-172s172,77,172,172S516.9,398.8,422,398.8z M692,496.9c-3.8,3.8-9,5.9-14.4,5.9
				c-5.4,0-10.5-2.1-14.3-5.9L541.3,374.8l28.7-28.7L692,468.2C699.9,476.1,699.9,489,692,496.9z"/>
		</g>
	</g>
	<g>
		<g>
			<path class="st0" d="M426.2,70.9l-0.4,16c41.4,1.1,80.2,20.5,105.9,52.9l12.5-10C515.5,93.7,472.3,72.1,426.2,70.9z"/>
		</g>
	</g>
	<g>
		<g>
			<path class="st0" d="M555.8,146.7l-13.7,8.2c3,5,5.7,10.1,8,15.4l14.6-6.5C562.1,158,559.1,152.2,555.8,146.7z"/>
		</g>
	</g>
	<path class="st0" d="M253.1,112.7c1.2-1.8,2.5-3.6,3.8-5.4V82.7h0c0-4.8-3.9-8.8-8.8-8.8h-35.3c-1.5,0-3,0.4-4.3,1.1
		c-3.6,1.1-6.3,4.4-6.3,8.4v48.9c0,4.8,3.9,8.8,8.8,8.8h26C241.6,131.4,246.9,121.9,253.1,112.7z M218.7,89.3h21.8v36.5h-21.8V89.3z
		"/>
	<path class="st0" d="M309.2,395.1v34.5h-21.8V393h18.8c-6.9-4.8-13.4-9.9-19.5-15.3h-6.6c-1.3,0-2.6,0.4-3.7,1
		c-3.1,0.8-5.4,3.7-5.4,7v51.9c0,4,3.3,7.3,7.3,7.3h38.2c1.3,0,2.6-0.4,3.7-1c3.1-0.8,5.4-3.7,5.4-7v-32
		C320,401.9,314.6,398.6,309.2,395.1z"/>
	<g>
		<path class="st0" d="M325.6,334.1v-48.9c0-4.8-3.9-8.8-8.8-8.8h-0.2h-35.1h-0.1c-2.8,0-5.4,1.3-7,3.4c3.5,9.4,7.8,18.4,12.9,26.9
			V291h23.4c0,0,0,0,0,0v37.2c0,0,0,0,0,0H303c4.4,5.2,9.2,10,14.3,14.6C321.9,342.6,325.6,338.8,325.6,334.1z"/>
		<path class="st0" d="M418.6,142.3c0.1,0,0.1,0,0.2,0c0,0,0.1,0,0.1,0c4,0,7.3-3.3,7.3-7.3v-33.8c-0.3,0-0.6,0-0.8,0l-13.9-0.4
			v33.9C411.5,138.7,414.5,142.2,418.6,142.3z"/>
		<path class="st0" d="M463.8,471h-0.7h-3.8c-2-18.8-15.4-34.2-33.2-39.1V429c-1.5,0-2.9,0.1-4.4,0.1c-3.5,0-6.9-0.1-10.3-0.3v1.6
			c0,0-0.1,0-0.1,0c-0.3,0-0.6,0.1-0.9,0.1c-0.6,0-1.1,0.1-1.7,0.1c-0.3,0-0.7,0.1-1,0.1c-0.5,0.1-1,0.1-1.5,0.2
			c-0.4,0.1-0.7,0.1-1.1,0.2c-0.5,0.1-1,0.2-1.5,0.3c-0.4,0.1-0.7,0.2-1.1,0.3c-0.5,0.1-0.9,0.2-1.4,0.4c-0.4,0.1-0.7,0.2-1.1,0.3
			c-0.5,0.1-0.9,0.3-1.4,0.5c-0.4,0.1-0.7,0.3-1.1,0.4c-0.4,0.2-0.9,0.3-1.3,0.5c-0.4,0.1-0.7,0.3-1,0.5c-0.3,0.1-0.6,0.3-0.9,0.4
			v-7.6c-4.9-0.7-9.9-1.5-14.7-2.6v4.8c0,0,0,0,0,0h-23.4v-11.3c-5-1.7-9.9-3.6-14.7-5.7v22.8c0,4.9,3.9,8.8,8.8,8.8h0.1h31.1
			c-0.2,0.2-0.4,0.4-0.7,0.7c-0.4,0.4-0.8,0.9-1.2,1.3c-0.2,0.2-0.4,0.4-0.6,0.6c-0.6,0.7-1.1,1.4-1.6,2.1c0,0,0,0,0,0
			c-0.8,0.2-1.6,0.4-2.4,0.6c-0.3,0.1-0.5,0.2-0.8,0.2c-0.5,0.2-1.1,0.3-1.6,0.5c-0.3,0.1-0.6,0.2-0.9,0.3c-0.5,0.2-1,0.4-1.4,0.6
			c-0.3,0.1-0.6,0.3-0.9,0.4c-0.5,0.2-0.9,0.4-1.4,0.7c-0.3,0.1-0.5,0.3-0.8,0.4c-0.5,0.3-1,0.5-1.4,0.8c-0.2,0.1-0.5,0.3-0.7,0.4
			c-0.6,0.4-1.2,0.8-1.8,1.2c-0.1,0-0.1,0.1-0.2,0.1c-0.7,0.5-1.3,1-1.9,1.5c-0.2,0.1-0.3,0.3-0.5,0.5c-0.4,0.4-0.9,0.8-1.3,1.2
			c-0.2,0.2-0.4,0.4-0.6,0.6c-0.4,0.4-0.7,0.8-1.1,1.1c-0.2,0.2-0.4,0.5-0.6,0.7c-0.3,0.4-0.7,0.8-1,1.2c-0.2,0.2-0.4,0.5-0.6,0.7
			c-0.3,0.4-0.6,0.9-0.9,1.3c-0.2,0.2-0.3,0.5-0.5,0.7c-0.4,0.6-0.7,1.1-1,1.7c-0.1,0.1-0.2,0.3-0.2,0.4c-0.4,0.7-0.8,1.5-1.1,2.2
			c-0.1,0.2-0.2,0.4-0.3,0.6c-0.2,0.5-0.4,0.9-0.6,1.4c0,0,0,0,0,0l-94,0V363.8l2.6,1.7c0.5,0.4,1.1,0.7,1.7,1
			c0.1,0,0.2,0.1,0.3,0.1c0.6,0.2,1.1,0.5,1.7,0.7c2.2,0.8,4.5,1.3,6.8,1.3c0,0,0.1,0,0.1,0c0.5,0,1,0,1.5-0.1
			c1-0.1,1.9-0.2,2.9-0.5c0.6-0.1,1.2-0.3,1.7-0.5c-6.1-6.3-11.7-12.9-16.9-19.8l-5.6-3.7L163.3,284c-1.2-0.8-2.5-1.3-3.9-1.5
			c-0.1,0-0.2-0.1-0.3-0.1c0,0-0.1,0-0.1,0c-0.5-0.1-1-0.1-1.6-0.1c-1.5,0-3.1,0.4-4.5,1.1c-0.4,0.2-0.8,0.4-1.2,0.7L47.3,353.4
			c-0.8,0.5-1.5,0.7-2.1,0.7c-0.4,0-0.7-0.1-0.9-0.1c-0.6-0.2-1.8-0.6-2.5-2c-1-1.8-0.4-4,1.3-5.2l114.4-76.1l90.3,60.1
			c-5.1-8.5-9.6-17.4-13.4-26.5l-15.7-10.5V291h10.7c-1.6-4.8-3.1-9.7-4.3-14.6h-12.3h-0.1c-4.4,0-8.1,3.3-8.7,7.6l-17.2-11.5V45.3
			h141.9c11.7-6,23.9-10.9,36.6-14.6H210.3V14.6H388c0,0,0,0,0,0v11c4.9-0.8,9.8-1.5,14.7-1.9V10.5C402.7,4.7,398,0,392.2,0h-0.1
			H206.2h-0.1c-5.8,0-10.5,4.7-10.5,10.5v20.2c0,0,0,0,0,0h-11h-0.1c-6.8,0-12.3,5.5-12.3,12.3v219.8l-8.8-5.9
			c-1.8-1.2-3.8-1.7-5.8-1.7c-2,0-4,0.6-5.8,1.7l-29.7,19.7v-9.7c0-6.5-5.3-11.7-11.7-11.7h-0.2H75.5h-0.1
			c-6.5,0-11.7,5.3-11.7,11.7v11.6c0,4.5,2.5,8.3,6.2,10.3c0,0,0,0,0,0l0,22.5c0,0,0,0,0,0l-35,23.3c-8,5.3-10.6,15.7-6.1,24.2
			c2.5,4.6,6.8,8,11.8,9.2c1.5,0.4,3,0.6,4.5,0.6c0,0,0,0,0.1,0c0,0,0.1,0,0.1,0c3.6,0,7.2-1.1,10.3-3.1h0l2.6-1.7v35.6
			c0,4,3.1,7.5,7.1,7.6c0.1,0,0.1,0,0.2,0c0,0,0.1,0,0.1,0c4,0,7.3-3.3,7.3-7.3V354l84.6-56.3l84.6,56.3c0,0,0,0,0,0V471
			c0,0,0,0,0,0h-93.3v-78.4c0-5.8-4.7-10.4-10.4-10.4h-0.2H90.7h-0.1c-5.8,0-10.5,4.7-10.5,10.5c0,0,0,66.9,0,77.1
			c0,0.3,0.1,0.6,0.2,0.9v0.3h-7.4v-25.9c0-4-3.3-7.3-7.3-7.3s-7.3,3.3-7.3,7.3V471H20.5C9.2,471,0,480.2,0,491.5S9.2,512,20.5,512
			h101.1h342h0.1c0,0,0.1,0,0.1,0c0.5,0,1,0,1.5-0.1c0.4,0,0.8-0.1,1.2-0.1c0.1,0,0.3,0,0.4-0.1c9.8-1.5,17.3-10,17.3-20.2
			C484.3,480.2,475.1,471,463.8,471z M101.1,290.6l-16.5,11v-11.3h16.5V290.6z M78.4,269.8h28.9c0,0,0,0,0,0v5.8c0,0,0,0,0,0H78.4
			V269.8z M367.9,470.8c0.1-0.1,0.1-0.2,0.2-0.3c0.3-0.4,0.6-0.7,0.9-1c0,0,0.1-0.1,0.1-0.1c0.3-0.4,0.7-0.7,1.1-1
			c0.1-0.1,0.2-0.2,0.3-0.2c0.4-0.3,0.7-0.6,1.1-0.9c0,0,0.1,0,0.1-0.1c0.4-0.3,0.8-0.5,1.1-0.8c0.1-0.1,0.2-0.1,0.3-0.2
			c0.4-0.3,0.8-0.5,1.3-0.8c0.1,0,0.1-0.1,0.2-0.1c0.4-0.2,0.8-0.4,1.2-0.6c0.1,0,0.2-0.1,0.3-0.1c0.5-0.2,0.9-0.4,1.4-0.6
			c0.1,0,0.2-0.1,0.3-0.1c0.4-0.1,0.9-0.3,1.3-0.4c0.1,0,0.1,0,0.2-0.1c0.5-0.1,1-0.2,1.5-0.3c0.1,0,0.2,0,0.3-0.1
			c0.5-0.1,1-0.2,1.5-0.2c2.2-0.2,4.2-1.5,5.4-3.4c5.7-9.1,15.4-14.5,26.1-14.5c0.6,0,1.2,0,1.8,0.1c0,0,0.1,0,0.1,0
			c0.6,0,1.2,0.1,1.9,0.2c0,0,0.1,0,0.1,0c13.6,1.7,24.4,12.3,26.6,25.8c0,0,0,0,0,0h-76.8C367.8,470.9,367.8,470.9,367.9,470.8z
			 M94.8,396.8H134c0,0,0,0,0,0V471c0,0,0,0,0,0H94.8V396.8z M463.6,497.4H110H20.5c-3.3,0-5.9-2.7-5.9-5.9s2.7-5.9,5.9-5.9h75.7
			h367.2c3,0,5.7,2.2,6.1,5.2C470,494.3,467.2,497.4,463.6,497.4z"/>
		<path class="st0" d="M426.2,383V180.3c0-4-3.2-7.3-7.2-7.3c0,0,0,0,0,0c0,0,0,0,0,0c0,0,0,0-0.1,0c-0.1,0-0.1,0-0.2,0
			c-4,0-7.3,3.3-7.3,7.3v202.4c3.5,0.2,7,0.4,10.5,0.4C423.4,383.1,424.8,383.1,426.2,383z"/>
	</g>
	<g>
		<path class="st0" d="M319.3,140.1c3.6-1.1,6.3-4.4,6.3-8.4v-29.4c-5.8,4.5-11.2,9.4-16.3,14.7v8.9h-8c-4.1,4.9-7.8,10-11.3,15.3
			h25.1C316.6,141.2,318.1,140.8,319.3,140.1z"/>
	</g>
	<path class="st0" d="M339.8,132.4c0,4.8,3.9,8.8,8.8,8.8h35.3c1.5,0,3-0.4,4.3-1.1c3.6-1.1,6.3-4.4,6.3-8.4V82.7
		c0-4.8-3.9-8.8-8.8-8.8h-2.4c-15.5,4-30.1,10.2-43.4,18.4V132.4z M356.1,89.3H378v36.5h-21.8V89.3z"/>
	<path class="st0" d="M218.7,227.1L218.7,227.1l0-36.5h3.1c0.9-5.1,2-10.2,3.3-15.3h-12.2c-1.5,0-3,0.4-4.3,1.1
		c-3.6,1.1-6.3,4.4-6.3,8.4v48.9c0,4.8,3.9,8.8,8.8,8.8h8.3C219,237.3,218.7,232.2,218.7,227.1z"/>
</g>
</svg>
