<svg version="1.1" id="phone_white" xmlns="http://www.w3.org/2000/svg" xmlns:xlink="http://www.w3.org/1999/xlink" x="0px" y="0px"
	 viewBox="0 0 297.4 512" style="enable-background:new 0 0 297.4 512;" xml:space="preserve">
<g>
	<path class="st0" d="M262.8,0H34.6C15.6,0,0,15.6,0,34.6v442.8c0,19,15.6,34.6,34.6,34.6h228.3c19,0,34.6-15.5,34.6-34.6V34.6
		C297.4,15.6,281.9,0,262.8,0z M112.2,24.9h73c2.3,0,4.2,1.9,4.2,4.2c0,2.3-1.9,4.2-4.2,4.2h-73c-2.3,0-4.2-1.9-4.2-4.2
		C108,26.8,109.9,24.9,112.2,24.9z M148.7,494.7c-9.6,0-17.3-7.7-17.3-17.3s7.7-17.3,17.3-17.3s17.3,7.7,17.3,17.3
		S158.3,494.7,148.7,494.7z M273.4,448H24.1V54.8h249.3V448z"/>
</g>
</svg>
